# xmcd
#
# Track frame offsets: 
#        150
#        15218
#        33479
#        44117
#        55353
#        71151
#        94349
#        103640
#        114905
#        131338
#        147177
#        157502
#        172179
#        193924
#        206954
#
# Disc length: 2891 seconds
#
# Revision: 0
# Processed by: cddbd v1.5.2PL0 Copyright (c) Steve Scherf et al.
# Submitted via: ExactAudioCopyFreeDBPlugin 1.0
#
DISCID=d70b490f
DTITLE=Various Artist - Faith, Hope and Country - Turn Your Radio On - 
DTITLE=Disc 1
DYEAR=2016
DGENRE=Country
TTITLE0=Tom T. Hall - Me And Jesus
TTITLE1=Don WIlliams - Lord, I Hope This Day Is Good
TTITLE2=Tennessee Ernie Ford - Just A Closer Walk With Thee
TTITLE3=Loretta Lynn - He's Got The Whole World In His Hands
TTITLE4=Ray Stevens - Everything Is Beautiful
TTITLE5=The Statler Brothers - Amazing Grace
TTITLE6=Pat Boone - A Wonderful Time Up There
TTITLE7=Merle Haggard - From Graceland To The Promised Land
TTITLE8=Glen Campbell - Oh Happy Day
TTITLE9=Tennessee Ernie Ford - Nearer, My God To Thee
TTITLE10=Ferlin Husky - Wings Of A Dove
TTITLE11=Merle Haggard and The Strangers feat. The Carter Family - Preci
TTITLE11=ous Memories
TTITLE12=Nitty Gritty Dirt Band - Will The Circle Be Unbroken
TTITLE13=Andy Griffith - I Love To Tell The Story
TTITLE14=Anne Murray - The Lord's Prayer
EXTD=
EXTT0=
EXTT1=
EXTT2=
EXTT3=
EXTT4=
EXTT5=
EXTT6=
EXTT7=
EXTT8=
EXTT9=
EXTT10=
EXTT11=
EXTT12=
EXTT13=
EXTT14=
PLAYORDER=
